<svg id="b6fd44a9-6022-4bad-9aba-751db567612b" xmlns="http://www.w3.org/2000/svg" width="100%" viewBox="0 0 64 62.43"><path class="social-icon-bg" d="M32,.8A32,32,0,0,0,21.88,63.16c1.6.3,2.19-.7,2.19-1.54s0-3.29,0-6c-8.91,1.94-10.78-3.77-10.78-3.77-1.46-3.7-3.56-4.69-3.56-4.69-2.9-2,.22-1.94.22-1.94,3.22.22,4.91,3.29,4.91,3.29,2.85,4.9,7.49,3.48,9.31,2.66a6.88,6.88,0,0,1,2-4.28c-7.11-.8-14.58-3.55-14.58-15.81a12.42,12.42,0,0,1,3.3-8.59,11.5,11.5,0,0,1,.31-8.47s2.68-.86,8.8,3.28a31,31,0,0,1,8-1.07,30.52,30.52,0,0,1,8,1.07c6.11-4.14,8.79-3.28,8.79-3.28a11.52,11.52,0,0,1,.32,8.47,12.37,12.37,0,0,1,3.29,8.59c0,12.29-7.48,15-14.61,15.78C39,47.9,40,49.84,40,52.83c0,4.28,0,7.73,0,8.78,0,.85.57,1.85,2.2,1.53A32,32,0,0,0,32,.79Z" transform="translate(0 -0.79)" fill-rule="evenodd"/></svg>