<svg xmlns:dc="http://purl.org/dc/elements/1.1/" xmlns:cc="http://creativecommons.org/ns#" xmlns:rdf="http://www.w3.org/1999/02/22-rdf-syntax-ns#" xmlns:svg="http://www.w3.org/2000/svg" xmlns="http://www.w3.org/2000/svg" enable-background="new 0 0 48 48" version="1.1" width="100%" viewBox="0 0 48 48" xml:space="preserve"><g><path class="social-icon-bg" d="m 36.8,15.4 c -0.9,0.5 -2,0.8 -3,0.9 1.1,-0.7 1.9,-1.8 2.3,-3.1 -1,0.6 -2.1,1.1 -3.4,1.4 -1,-1.1 -2.3,-1.8 -3.8,-1.8 -2.9,0 -5.3,2.5 -5.3,5.7 0,0.4 0,0.9 0.1,1.3 -4.4,-0.2 -8.3,-2.5 -10.9,-5.9 -0.5,0.8 -0.7,1.8 -0.7,2.9 0,2 0.9,3.7 2.3,4.7 -0.9,0 -1.7,-0.3 -2.4,-0.7 0,0 0,0.1 0,0.1 0,2.7 1.8,5 4.2,5.6 -0.4,0.1 -0.9,0.2 -1.4,0.2 -0.3,0 -0.7,0 -1,-0.1 0.7,2.3 2.6,3.9 4.9,3.9 -1.8,1.5 -4.1,2.4 -6.5,2.4 -0.4,0 -0.8,0 -1.3,-0.1 2.3,1.6 5.1,2.6 8.1,2.6 9.7,0 15,-8.6 15,-16.1 0,-0.2 0,-0.5 0,-0.7 1.2,-1 2.1,-2 2.8,-3.2 z M 48,24 A 24,24 0 0 1 24,48 24,24 0 0 1 0,24 24,24 0 0 1 24,0 24,24 0 0 1 48,24 Z" /></g></svg>
